<?xml version="1.0" encoding="utf-8"?>
<!-- Generator: Adobe Illustrator 26.1.0, SVG Export Plug-In . SVG Version: 6.00 Build 0)  -->
<svg version="1.1" id="Layer_1" xmlns="http://www.w3.org/2000/svg" xmlns:xlink="http://www.w3.org/1999/xlink" x="0px" y="0px"
	 viewBox="0 0 100 100" style="enable-background:new 0 0 100 100;" xml:space="preserve">
<style type="text/css">
	.st0{fill:#C0C0C0;}
	.st1{fill:#808080;}
	.st2{fill:#FFFFFF;}
</style>
<g>
	<rect x="1.5" y="1.5" class="st0" width="97" height="97"/>
	<path class="st1" d="M97,3v94H3V3H97 M100,0H0v100h100V0L100,0z"/>
</g>
<g>
	<rect x="18.9" y="18.9" width="6.9" height="6.9"/>
	<rect x="74.2" y="18.9" width="6.9" height="6.9"/>
	<path d="M88,46.6h-6.9v-6.9v-6.9h-6.9v-6.9h-6.9v-6.9h-6.9h-6.9V12V5h-6.9V12v6.9h-6.9h-6.9v6.9h-6.9v6.9h-6.9v6.9v6.9H12H5v6.9H12
		h6.9v6.9v6.9h6.9v6.9h6.9v6.9h6.9h6.9v6.9V95h6.9v-6.9v-6.9h6.9h6.9v-6.9h6.9v-6.9h6.9v-6.9v-6.9h6.9H95v-6.9H88z M39.7,32.7h6.9
		v6.9v6.9h-6.9h-6.9v-6.9v-6.9H39.7z"/>
	<rect x="18.9" y="74.2" width="6.9" height="6.9"/>
	<rect x="74.2" y="74.2" width="6.9" height="6.9"/>
</g>
<rect x="32.7" y="32.7" class="st2" width="13.8" height="13.8"/>
</svg>
