<?xml version="1.0" standalone="no"?>
<!DOCTYPE svg PUBLIC "-//W3C//DTD SVG 20010904//EN"
 "http://www.w3.org/TR/2001/REC-SVG-20010904/DTD/svg10.dtd">
<svg version="1.0" xmlns="http://www.w3.org/2000/svg"
 width="700.000000pt" height="700.000000pt" viewBox="0 0 700.000000 700.000000"
 preserveAspectRatio="xMidYMid meet">
<metadata>
Created by potrace 1.14, written by Peter Selinger 2001-2017
</metadata>
<g transform="translate(0.000000,700.000000) scale(0.100000,-0.100000)"
fill="#000000" stroke="none">
<path d="M3226 6461 l2 -539 -517 0 c-284 0 -526 -1 -538 -1 l-23 -1 0 -269 0
-268 -252 -1 c-139 0 -261 0 -270 -1 -17 -1 -18 -21 -18 -269 l0 -268 -267 1
-268 0 -5 -540 -5 -539 -532 0 -533 0 0 -268 c0 -207 3 -268 13 -269 6 0 249
-1 538 -1 l527 -1 0 -521 c0 -287 1 -529 1 -538 1 -17 21 -18 269 -18 l269 0
0 -243 c1 -133 2 -254 2 -269 l1 -28 268 0 268 0 -1 -257 c-1 -142 1 -264 3
-270 3 -10 120 -13 541 -13 l536 0 -1 -535 0 -535 270 0 271 0 -1 535 -2 535
539 0 539 0 0 270 0 270 265 0 c146 0 265 -3 266 -7 0 -5 1 -124 1 -266 1
-227 3 -257 17 -258 23 -1 482 -1 506 0 19 1 20 7 18 249 -1 136 -2 257 -2
268 -1 22 -3 22 -248 22 -137 0 -256 1 -265 1 -17 1 -18 21 -18 266 l0 265
270 0 270 0 0 539 0 538 525 1 c289 0 530 1 535 1 6 1 10 98 10 269 l0 269
-517 -1 c-285 -1 -528 0 -539 2 l-21 4 1 534 c1 348 -2 535 -9 537 -5 2 -126
3 -268 2 -252 -1 -258 0 -262 20 -2 11 -3 130 -2 264 2 196 -1 245 -11 249 -8
3 -129 5 -270 6 l-257 1 0 262 c0 144 -4 265 -8 269 -3 4 -245 7 -536 7 -387
-1 -531 2 -533 11 -2 6 -3 248 -3 539 l1 527 -271 0 -270 0 1 -539z m4 -1620
c3 -1 5 -242 5 -536 0 -294 -2 -535 -5 -536 -3 0 -243 -2 -533 -2 -344 -1
-531 2 -535 8 -9 14 -9 1048 -1 1060 5 6 193 10 536 9 290 -1 530 -2 533 -3z"/>
<path d="M1115 5922 l-40 -3 2 -247 c1 -136 2 -256 2 -268 1 -20 4 -21 269
-20 l267 1 1 268 c1 264 1 267 -20 268 -89 2 -449 3 -481 1z"/>
<path d="M5390 5915 c-4 -5 -8 -127 -7 -271 l0 -261 269 0 c185 0 268 4 269
11 4 56 0 518 -4 523 -11 10 -518 8 -527 -2z"/>
<path d="M1083 1607 c-8 -13 -7 -516 1 -524 4 -5 454 -8 522 -4 8 1 11 82 10
269 l-1 267 -263 1 c-167 1 -265 -2 -269 -9z"/>
</g>
</svg>
